<?xml version="1.0" encoding="UTF-8" standalone="no"?>
<svg width="153px" height="13px" viewBox="0 0 153 13" version="1.1" xmlns="http://www.w3.org/2000/svg" xmlns:xlink="http://www.w3.org/1999/xlink">
    <!-- Generator: Sketch 39.1 (31720) - http://www.bohemiancoding.com/sketch -->
    <title>PRESENTS</title>
    <desc>Created with Sketch.</desc>
    <defs></defs>
    <g id="Page-1" stroke="none" stroke-width="1" fill="none" fill-rule="evenodd">
        <g id="Home---Large-Devices-(-≥-1200px-)" transform="translate(-351.000000, -335.000000)" fill="#6A792D">
            <g id="content-radio" transform="translate(246.000000, 174.000000)">
                <path d="M105.148444,172.52 L105.148444,161.768 C105.148444,161.639999 105.19911,161.530667 105.300444,161.44 C105.401778,161.349333 105.532443,161.304 105.692444,161.304 L108.716444,161.304 C109.740449,161.304 110.561774,161.581331 111.180444,162.136 C111.799113,162.690669 112.108444,163.565327 112.108444,164.76 L112.108444,164.904 C112.108444,166.098673 111.79378,166.975997 111.164444,167.536 C110.535107,168.096003 109.697782,168.376 108.652444,168.376 L106.492444,168.376 L106.492444,172.52 C106.492444,172.669334 106.425778,172.786666 106.292444,172.872 C106.15911,172.957334 106.001778,173 105.820444,173 C105.639109,173 105.481778,172.957334 105.348444,172.872 C105.21511,172.786666 105.148444,172.669334 105.148444,172.52 L105.148444,172.52 Z M106.492444,167.256 L108.652444,167.256 C109.324447,167.256 109.844442,167.066669 110.212444,166.688 C110.580446,166.309331 110.764444,165.741337 110.764444,164.984 L110.764444,164.792 C110.764444,164.034663 110.580446,163.466669 110.212444,163.088 C109.844442,162.709331 109.324447,162.52 108.652444,162.52 L106.492444,162.52 L106.492444,167.256 Z M126.152888,172.52 L126.152888,161.768 C126.152888,161.639999 126.198221,161.533334 126.288888,161.448 C126.379555,161.362666 126.494221,161.314667 126.632888,161.304 L129.560888,161.304 C130.62756,161.304 131.486218,161.551998 132.136888,162.048 C132.787558,162.544002 133.112888,163.362661 133.112888,164.504 C133.112888,166.264009 132.31823,167.303998 130.728888,167.624 L133.096888,172.12 C133.139555,172.194667 133.160888,172.269333 133.160888,172.344 C133.160888,172.514668 133.075556,172.671999 132.904888,172.816 C132.734221,172.960001 132.552889,173.032 132.360888,173.032 C132.136887,173.032 131.934223,172.856002 131.752888,172.504 L129.336888,167.816 L127.496888,167.816 L127.496888,172.52 C127.496888,172.669334 127.430222,172.786666 127.296888,172.872 C127.163554,172.957334 127.006223,173 126.824888,173 C126.643554,173 126.486222,172.957334 126.352888,172.872 C126.219554,172.786666 126.152888,172.669334 126.152888,172.52 L126.152888,172.52 Z M127.496888,166.696 L129.560888,166.696 C131.032896,166.696 131.768888,165.99734 131.768888,164.6 C131.768888,163.213326 131.032896,162.52 129.560888,162.52 L127.496888,162.52 L127.496888,166.696 Z M147.285333,172.52 L147.285333,161.784 C147.285333,161.634666 147.346666,161.517334 147.469333,161.432 C147.592,161.346666 147.733332,161.304 147.893333,161.304 L153.589333,161.304 C153.738667,161.304 153.853333,161.362666 153.933333,161.48 C154.013333,161.597334 154.053333,161.735999 154.053333,161.896 C154.053333,162.066668 154.010667,162.213333 153.925333,162.336 C153.839999,162.458667 153.728,162.52 153.589333,162.52 L148.629333,162.52 L148.629333,166.584 L151.125333,166.584 C151.264,166.584 151.375999,166.639999 151.461333,166.752 C151.546667,166.864001 151.589333,166.999999 151.589333,167.16 C151.589333,167.298667 151.549333,167.423999 151.469333,167.536 C151.389333,167.648001 151.274667,167.704 151.125333,167.704 L148.629333,167.704 L148.629333,171.784 L153.589333,171.784 C153.728,171.784 153.839999,171.845333 153.925333,171.968 C154.010667,172.090667 154.053333,172.237332 154.053333,172.408 C154.053333,172.568001 154.013333,172.706666 153.933333,172.824 C153.853333,172.941334 153.738667,173 153.589333,173 L147.893333,173 C147.733332,173 147.592,172.957334 147.469333,172.872 C147.346666,172.786666 147.285333,172.669334 147.285333,172.52 L147.285333,172.52 Z M167.345778,171.32 C167.345778,171.149332 167.40711,170.984001 167.529778,170.824 C167.652445,170.663999 167.788444,170.584 167.937778,170.584 C168.033778,170.584 168.156444,170.650666 168.305778,170.784 C168.455112,170.917334 168.609777,171.066666 168.769778,171.232 C168.929778,171.397334 169.180443,171.546666 169.521778,171.68 C169.863113,171.813334 170.247109,171.88 170.673778,171.88 C171.367114,171.88 171.911109,171.712002 172.305778,171.376 C172.700446,171.039998 172.897778,170.54667 172.897778,169.896 C172.897778,169.30933 172.716446,168.832002 172.353778,168.464 C171.991109,168.095998 171.55378,167.816001 171.041778,167.624 C170.529775,167.431999 170.015114,167.226668 169.497778,167.008 C168.980442,166.789332 168.540446,166.453336 168.177778,166 C167.815109,165.546664 167.633778,164.96267 167.633778,164.248 C167.633778,163.693331 167.740443,163.210669 167.953778,162.8 C168.167112,162.389331 168.452443,162.080001 168.809778,161.872 C169.167113,161.663999 169.537776,161.512 169.921778,161.416 C170.30578,161.32 170.716442,161.272 171.153778,161.272 C171.815114,161.272 172.447108,161.365332 173.049778,161.552 C173.652447,161.738668 173.953778,161.997332 173.953778,162.328 C173.953778,162.477334 173.900445,162.637332 173.793778,162.808 C173.68711,162.978668 173.548445,163.064 173.377778,163.064 C173.335111,163.064 173.08978,162.962668 172.641778,162.76 C172.193775,162.557332 171.69778,162.456 171.153778,162.456 C170.503108,162.456 169.97778,162.589332 169.577778,162.856 C169.177776,163.122668 168.977778,163.543997 168.977778,164.12 C168.977778,164.610669 169.159109,165.007998 169.521778,165.312 C169.884446,165.616002 170.324442,165.858666 170.841778,166.04 C171.359114,166.221334 171.873775,166.429332 172.385778,166.664 C172.89778,166.898668 173.335109,167.274664 173.697778,167.792 C174.060446,168.309336 174.241778,168.967996 174.241778,169.768 C174.241778,170.877339 173.921781,171.714664 173.281778,172.28 C172.641774,172.845336 171.793783,173.128 170.737778,173.128 C169.78844,173.128 168.985781,172.925335 168.329778,172.52 C167.673774,172.114665 167.345778,171.714669 167.345778,171.32 L167.345778,171.32 Z M188.430222,172.52 L188.430222,161.784 C188.430222,161.634666 188.491555,161.517334 188.614222,161.432 C188.73689,161.346666 188.878222,161.304 189.038222,161.304 L194.734222,161.304 C194.883556,161.304 194.998222,161.362666 195.078222,161.48 C195.158223,161.597334 195.198222,161.735999 195.198222,161.896 C195.198222,162.066668 195.155556,162.213333 195.070222,162.336 C194.984889,162.458667 194.87289,162.52 194.734222,162.52 L189.774222,162.52 L189.774222,166.584 L192.270222,166.584 C192.40889,166.584 192.520889,166.639999 192.606222,166.752 C192.691556,166.864001 192.734222,166.999999 192.734222,167.16 C192.734222,167.298667 192.694223,167.423999 192.614222,167.536 C192.534222,167.648001 192.419556,167.704 192.270222,167.704 L189.774222,167.704 L189.774222,171.784 L194.734222,171.784 C194.87289,171.784 194.984889,171.845333 195.070222,171.968 C195.155556,172.090667 195.198222,172.237332 195.198222,172.408 C195.198222,172.568001 195.158223,172.706666 195.078222,172.824 C194.998222,172.941334 194.883556,173 194.734222,173 L189.038222,173 C188.878222,173 188.73689,172.957334 188.614222,172.872 C188.491555,172.786666 188.430222,172.669334 188.430222,172.52 L188.430222,172.52 Z M209.098667,172.52 L209.098667,161.768 C209.098667,161.458665 209.322665,161.304 209.770667,161.304 C209.994668,161.304 210.184,161.370666 210.338667,161.504 C210.493334,161.637334 210.645333,161.853332 210.794667,162.152 L214.778667,169.944 L214.778667,161.768 C214.778667,161.618666 214.845333,161.504 214.978667,161.424 C215.112001,161.344 215.269333,161.304 215.450667,161.304 C215.632001,161.304 215.789333,161.344 215.922667,161.424 C216.056001,161.504 216.122667,161.618666 216.122667,161.768 L216.122667,172.52 C216.122667,172.669334 216.056001,172.786666 215.922667,172.872 C215.789333,172.957334 215.632001,173 215.450667,173 C215.109332,173 214.826668,172.797335 214.602667,172.392 L210.442667,164.344 L210.442667,172.52 C210.442667,172.669334 210.376001,172.786666 210.242667,172.872 C210.109333,172.957334 209.952001,173 209.770667,173 C209.589333,173 209.432001,172.957334 209.298667,172.872 C209.165333,172.786666 209.098667,172.669334 209.098667,172.52 L209.098667,172.52 Z M229.911112,161.912 C229.911112,161.751999 229.953778,161.610667 230.039112,161.488 C230.124445,161.365333 230.241778,161.304 230.391112,161.304 L236.903112,161.304 C237.052446,161.304 237.169778,161.365333 237.255112,161.488 C237.340445,161.610667 237.383112,161.751999 237.383112,161.912 C237.383112,162.082668 237.340445,162.231999 237.255112,162.36 C237.169778,162.488001 237.052446,162.552 236.903112,162.552 L234.327112,162.552 L234.327112,172.52 C234.327112,172.669334 234.260446,172.786666 234.127112,172.872 C233.993778,172.957334 233.836446,173 233.655112,173 C233.473777,173 233.316446,172.957334 233.183112,172.872 C233.049778,172.786666 232.983112,172.669334 232.983112,172.52 L232.983112,162.552 L230.391112,162.552 C230.241778,162.552 230.124445,162.490667 230.039112,162.368 C229.953778,162.245333 229.911112,162.093334 229.911112,161.912 L229.911112,161.912 Z M250.483556,171.32 C250.483556,171.149332 250.544889,170.984001 250.667556,170.824 C250.790224,170.663999 250.926222,170.584 251.075556,170.584 C251.171557,170.584 251.294222,170.650666 251.443556,170.784 C251.59289,170.917334 251.747555,171.066666 251.907556,171.232 C252.067557,171.397334 252.318221,171.546666 252.659556,171.68 C253.000891,171.813334 253.384887,171.88 253.811556,171.88 C254.504893,171.88 255.048888,171.712002 255.443556,171.376 C255.838225,171.039998 256.035556,170.54667 256.035556,169.896 C256.035556,169.30933 255.854225,168.832002 255.491556,168.464 C255.128888,168.095998 254.691559,167.816001 254.179556,167.624 C253.667554,167.431999 253.152892,167.226668 252.635556,167.008 C252.11822,166.789332 251.678225,166.453336 251.315556,166 C250.952888,165.546664 250.771556,164.96267 250.771556,164.248 C250.771556,163.693331 250.878222,163.210669 251.091556,162.8 C251.304891,162.389331 251.590221,162.080001 251.947556,161.872 C252.304891,161.663999 252.675554,161.512 253.059556,161.416 C253.443558,161.32 253.854221,161.272 254.291556,161.272 C254.952893,161.272 255.584887,161.365332 256.187556,161.552 C256.790226,161.738668 257.091556,161.997332 257.091556,162.328 C257.091556,162.477334 257.038223,162.637332 256.931556,162.808 C256.824889,162.978668 256.686224,163.064 256.515556,163.064 C256.472889,163.064 256.227559,162.962668 255.779556,162.76 C255.331554,162.557332 254.835559,162.456 254.291556,162.456 C253.640886,162.456 253.115558,162.589332 252.715556,162.856 C252.315554,163.122668 252.115556,163.543997 252.115556,164.12 C252.115556,164.610669 252.296888,165.007998 252.659556,165.312 C253.022225,165.616002 253.46222,165.858666 253.979556,166.04 C254.496892,166.221334 255.011554,166.429332 255.523556,166.664 C256.035559,166.898668 256.472888,167.274664 256.835556,167.792 C257.198225,168.309336 257.379556,168.967996 257.379556,169.768 C257.379556,170.877339 257.059559,171.714664 256.419556,172.28 C255.779553,172.845336 254.931562,173.128 253.875556,173.128 C252.926218,173.128 252.12356,172.925335 251.467556,172.52 C250.811553,172.114665 250.483556,171.714669 250.483556,171.32 L250.483556,171.32 Z" id="PRESENTS"></path>
            </g>
        </g>
    </g>
</svg>